<?xml version="1.0" encoding="UTF-8" standalone="no"?>
<!-- Created with Inkscape (http://www.inkscape.org/) -->

<svg
   xmlns:dc="http://purl.org/dc/elements/1.1/"
   xmlns:cc="http://creativecommons.org/ns#"
   xmlns:rdf="http://www.w3.org/1999/02/22-rdf-syntax-ns#"
   xmlns:svg="http://www.w3.org/2000/svg"
   xmlns="http://www.w3.org/2000/svg"
   xmlns:sodipodi="http://sodipodi.sourceforge.net/DTD/sodipodi-0.dtd"
   xmlns:inkscape="http://www.inkscape.org/namespaces/inkscape"
   version="1.1"
   id="svg2"
   width="64"
   height="64"
   viewBox="0 0 64.000001 64.000001"
   sodipodi:docname="gear-64.svg"
   inkscape:version="0.92.4 (5da689c313, 2019-01-14)">
  <metadata
     id="metadata8">
    <rdf:RDF>
      <cc:Work
         rdf:about="">
        <dc:format>image/svg+xml</dc:format>
        <dc:type
           rdf:resource="http://purl.org/dc/dcmitype/StillImage" />
        <dc:title></dc:title>
      </cc:Work>
    </rdf:RDF>
  </metadata>
  <defs
     id="defs6" />
  <sodipodi:namedview
     pagecolor="#ffffff"
     bordercolor="#666666"
     borderopacity="1"
     objecttolerance="10"
     gridtolerance="10"
     guidetolerance="10"
     inkscape:pageopacity="0"
     inkscape:pageshadow="2"
     inkscape:window-width="780"
     inkscape:window-height="480"
     id="namedview4"
     showgrid="false"
     inkscape:zoom="5.0063162"
     inkscape:cx="59.278135"
     inkscape:cy="33.093597"
     inkscape:window-x="0"
     inkscape:window-y="0"
     inkscape:window-maximized="0"
     inkscape:current-layer="svg2" />
  <g
     id="g3319"
     transform="matrix(0.18810564,0,0,0.18807696,-19.183792,-1.5466169)">
    <path
       style="fill:#010101;stroke-width:1.33333325"
       d="m 242.92655,310.96637 c -10.40212,-2.44791 -25.82287,-8.05033 -27.40462,-9.95623 -1.11893,-1.34822 -1.32921,-4.72925 -0.69465,-11.16904 0.76308,-7.74403 0.48748,-10.05718 -1.70657,-14.32361 -3.42886,-6.66758 -8.79378,-11.63034 -16.19416,-14.98024 -7.59457,-3.43778 -12.81827,-3.4642 -21.33333,-0.10788 -10.38656,4.094 -10.99181,3.83806 -18.46197,-7.80725 -14.55239,-22.68589 -15.03756,-26.5374 -4.31348,-34.24188 9.99198,-7.17853 14.12545,-18.70793 10.85539,-30.27871 -2.28347,-8.07978 -5.5893,-11.48973 -16.38997,-16.90618 -5.22696,-2.62129 -10.11282,-5.76902 -10.85747,-6.99497 -1.44853,-2.38479 3.50051,-25.04639 7.5936,-34.771 l 2.1045,-5 h 11.75852 c 10.35342,0 12.3462,-0.39935 16.67651,-3.34187 6.25606,-4.2511 12.50421,-13.30434 14.60627,-21.163695 1.39822,-5.227769 1.30485,-7.044827 -0.6409,-12.473472 -1.25264,-3.494865 -2.27456,-8.250514 -2.27093,-10.56811 0.006,-3.744467 0.99717,-4.839417 8.90006,-9.830544 4.89141,-3.089202 12.48376,-7.314672 16.8719,-9.389932 9.26469,-4.381508 10.38642,-4.083584 17.55267,4.661875 5.72064,6.981286 10.12891,8.772412 21.59042,8.772412 14.18143,0 21.42384,-4.212026 26.36504,-15.333333 4.5139,-10.159589 5.4475,-10.597449 17.3482,-8.136332 5.545,1.14673 14.12353,3.46915 19.0634,5.160934 l 8.98157,3.07597 0.67956,12.616381 c 0.78036,14.487537 2.89279,18.540573 13.23296,25.389618 10.11082,6.697138 14.84076,7.490888 24.47524,4.10729 4.5534,-1.599136 9.18366,-2.901448 10.28949,-2.894025 2.35439,0.0158 11.31632,13.042513 17.32255,25.179353 5.07025,10.24552 4.65306,13.03697 -2.83474,18.96741 -3.0296,2.39949 -6.33113,6.33185 -7.33672,8.73856 -4.01018,9.59775 -0.9018,27.78893 5.80698,33.9841 2.0339,1.8782 6.59636,4.7809 10.1388,6.45044 3.54242,1.66955 6.74256,3.82199 7.11141,4.7832 1.43795,3.74723 -6.94764,34.42483 -10.68073,39.0741 -1.11495,1.38858 -3.65414,1.6273 -10.5207,0.98913 -14.41884,-1.34009 -23.5768,3.93271 -29.83972,17.18053 -3.86117,8.16748 -4.00109,13.82562 -0.51105,20.66667 4.70901,9.23043 3.80285,12.35397 -5.35881,18.47189 -9.6562,6.44817 -24.29971,13.52811 -27.98029,13.52811 -1.66626,0 -4.43746,-2.46667 -7.39296,-6.58052 -8.18498,-11.39288 -23.07628,-13.93651 -37.8049,-6.45755 -5.19497,2.63792 -6.84134,4.53015 -10.79637,12.40865 -5.16296,10.28471 -6.9098,11.10958 -18,8.49975 z m 52.56109,-66.37422 c 17.31716,-6.58 30.36226,-18.34658 38.6108,-34.82667 17.42992,-34.82391 4.26892,-76.02743 -30.1427,-94.36864 -37.97022,-20.237913 -85.75808,-1.29182 -99.7904,39.56315 -10.59918,30.85942 0.91882,64.25213 28.56706,82.8209 16.91092,11.35752 43.26308,14.2177 62.75524,6.81126 z"
       id="path3321"
       inkscape:connector-curvature="0" />
  </g>
</svg>
